<svg preserveAspectRatio="none" width="100%" height="100%" overflow="visible" style="display: block;" viewBox="0 0 394.242 852.797" fill="none" xmlns="http://www.w3.org/2000/svg">
<path id="Mask" d="M60.0653 852.575C54.7211 852.33 50.9606 851.938 46.4488 851.156C31.6815 848.596 19.8112 841.725 11.985 831.209C5.19518 822.085 1.92524 812.552 0.461382 797.613C0.0182756 793.091 0 778.387 0 426.404C0 78.1984 0.022403 59.6751 0.448806 55.3226C2.1494 37.9635 6.7593 26.5815 15.8954 17.1843C20.8005 12.139 26.2544 8.41717 32.7119 5.70845C38.9895 3.07519 45.3339 1.61387 54.5933 0.668491C59.8022 0.136668 60.0313 0.135619 192.285 0.0380344C325.917 -0.0605669 332.747 -0.0235175 341.176 0.845637C351.573 1.91772 359.749 4.32605 367.242 8.52348C374.702 12.7031 381.496 19.5005 385.911 27.2029C390.182 34.6558 392.609 43.3139 393.791 55.3226C394.221 59.6842 394.242 77.4708 394.242 426.404C394.242 777.758 394.224 793.099 393.783 797.613C392.329 812.524 389.05 822.082 382.257 831.209C378.229 836.622 373.154 841.069 367.175 844.425C358.169 849.479 348.879 851.786 334.304 852.588C329.077 852.876 66.3627 852.863 60.0653 852.575ZM245.606 48.4918C248.829 47.5344 251.31 46.072 253.649 43.7508C256.142 41.2772 257.473 39.1145 258.43 35.9827C259.322 33.0658 259.322 28.7126 258.43 25.7957C257.473 22.6639 256.142 20.5012 253.649 18.0276C251.912 16.3044 251.013 15.6368 249.297 14.7973C244.876 12.6351 249.741 12.8187 196.867 12.8187H149.909L147.926 13.3935C139.674 15.7852 134.511 22.519 134.511 30.8892C134.511 40.1117 140.918 47.4419 150.173 48.8065C151.011 48.93 172.393 49.0112 197.885 48.9878C241.387 48.9479 244.168 48.919 245.606 48.4918Z" fill="var(--fill-0, black)"/>
</svg>
