<svg preserveAspectRatio="none" width="100%" height="100%" overflow="visible" style="display: block;" viewBox="0 0 393.799 851.837" fill="none" xmlns="http://www.w3.org/2000/svg">
<path id="Mask" d="M59.9977 851.614C54.6595 851.37 50.9032 850.979 46.3965 850.198C31.6458 847.64 19.7889 840.777 11.9715 830.273C5.18933 821.16 1.92307 811.637 0.460862 796.715C0.018255 792.198 0 777.511 0 425.924C0 78.1103 0.0223778 59.6079 0.4483 55.2603C2.14698 37.9207 6.75169 26.5515 15.8775 17.1649C20.7771 12.1253 26.2249 8.40769 32.6751 5.70202C38.9456 3.07173 45.2828 1.61206 54.5318 0.667738C59.7348 0.136514 59.9636 0.135467 192.069 0.0379916C325.55 -0.0604987 332.373 -0.023491 340.792 0.844685C351.177 1.91556 359.344 4.32118 366.828 8.51388C374.28 12.6888 381.066 19.4786 385.476 27.1723C389.743 34.6168 392.167 43.2652 393.348 55.2603C393.777 59.617 393.799 77.3836 393.799 425.924C393.799 776.882 393.78 792.206 393.34 796.715C391.887 811.609 388.611 821.157 381.827 830.273C377.804 835.679 372.734 840.122 366.762 843.474C357.766 848.523 348.486 850.827 333.928 851.628C328.707 851.915 66.288 851.902 59.9977 851.614ZM245.33 48.4372C248.549 47.4809 251.027 46.0202 253.363 43.7016C255.854 41.2307 257.183 39.0704 258.139 35.9422C259.03 33.0285 259.03 28.6803 258.139 25.7667C257.183 22.6384 255.854 20.4781 253.363 18.0073C251.629 16.2861 250.73 15.6192 249.016 14.7806C244.601 12.6209 249.46 12.8043 196.645 12.8043H149.74L147.759 13.3784C139.517 15.7675 134.359 22.4936 134.359 30.8544C134.359 40.0666 140.76 47.3885 150.004 48.7516C150.84 48.8749 172.199 48.956 197.662 48.9327C241.115 48.8928 243.893 48.8639 245.33 48.4372Z" fill="var(--fill-0, black)"/>
</svg>
