<svg preserveAspectRatio="none" width="100%" height="100%" overflow="visible" style="display: block;" viewBox="0 0 261.263 565.145" fill="none" xmlns="http://www.w3.org/2000/svg">
<path id="Mask" d="M39.8051 564.998C36.2635 564.836 33.7714 564.576 30.7815 564.058C20.9952 562.361 13.1288 557.808 7.94242 550.839C3.44282 544.793 1.27585 538.475 0.305756 528.575C0.0121111 525.578 0 515.834 0 282.576C0 51.8218 0.0148464 39.5465 0.297422 36.662C1.4244 25.1582 4.47936 17.6154 10.5338 11.388C13.7844 8.04446 17.3987 5.57802 21.678 3.78297C25.8382 2.03792 30.0426 1.06951 36.1787 0.443006C39.6306 0.0905695 39.7825 0.0898744 127.427 0.0252052C215.984 -0.0401374 220.51 -0.0155849 226.096 0.5604C232.986 1.27087 238.404 2.86686 243.369 5.64847C248.314 8.41828 252.816 12.9229 255.741 18.0273C258.572 22.9663 260.18 28.704 260.964 36.662C261.249 39.5525 261.263 51.3396 261.263 282.576C261.263 515.417 261.25 525.584 260.959 528.575C259.995 538.456 257.822 544.791 253.32 550.839C250.651 554.426 247.287 557.373 243.325 559.597C237.357 562.946 231.201 564.475 221.542 565.007C218.078 565.197 43.9783 565.189 39.8051 564.998ZM162.762 32.1353C164.898 31.5009 166.542 30.5317 168.092 28.9935C169.744 27.3543 170.626 25.921 171.261 23.8456C171.851 21.9126 171.851 19.0277 171.261 17.0947C170.626 15.0193 169.744 13.586 168.092 11.9468C166.941 10.8049 166.345 10.3624 165.208 9.80611C162.279 8.37323 165.502 8.4949 130.463 8.4949H99.344L98.0298 8.8758C92.5613 10.4608 89.1397 14.9232 89.1397 20.4701C89.1397 26.5819 93.3861 31.4396 99.5192 32.3439C100.074 32.4257 114.244 32.4795 131.137 32.464C159.966 32.4376 161.809 32.4184 162.762 32.1353Z" fill="var(--fill-0, black)"/>
</svg>
