<svg preserveAspectRatio="none" width="100%" height="100%" overflow="visible" style="display: block;" viewBox="0 0 261.557 565.782" fill="none" xmlns="http://www.w3.org/2000/svg">
<path id="Mask" d="M39.8499 565.635C36.3043 565.472 33.8095 565.213 30.8162 564.694C21.0189 562.995 13.1436 558.437 7.95138 551.46C3.4467 545.407 1.27729 539.082 0.306101 529.171C0.0121248 526.171 0 516.416 0 282.895C0 51.8802 0.0148631 39.5911 0.297757 36.7034C1.426 25.1866 4.48441 17.6353 10.5457 11.4008C13.8 8.05353 17.4183 5.58431 21.7025 3.78723C25.8673 2.04021 30.0765 1.07071 36.2195 0.443506C39.6753 0.0906717 39.8273 0.0899758 127.57 0.0252337C216.227 -0.0401827 220.759 -0.0156025 226.351 0.561032C233.249 1.2723 238.673 2.87009 243.644 5.65484C248.594 8.42777 253.101 12.9375 256.03 18.0476C258.864 22.9922 260.474 28.7363 261.258 36.7034C261.543 39.5971 261.557 51.3975 261.557 282.895C261.557 515.998 261.545 526.176 261.253 529.171C260.288 539.063 258.112 545.405 253.606 551.46C250.934 555.051 247.566 558.001 243.6 560.228C237.625 563.581 231.462 565.112 221.792 565.644C218.324 565.834 44.0279 565.826 39.8499 565.635ZM162.946 32.1715C165.084 31.5364 166.73 30.5662 168.282 29.0262C169.936 27.3851 170.819 25.9502 171.454 23.8725C172.045 21.9373 172.045 19.0492 171.454 17.114C170.819 15.0362 169.936 13.6014 168.282 11.9603C167.13 10.8171 166.533 10.3741 165.394 9.81717C162.461 8.38267 165.689 8.50447 130.61 8.50447H99.456L98.1403 8.8858C92.6657 10.4726 89.2402 14.94 89.2402 20.4932C89.2402 26.6118 93.4914 31.475 99.6314 32.3803C100.187 32.4622 114.373 32.5162 131.285 32.5006C160.146 32.4741 161.992 32.455 162.946 32.1715Z" fill="var(--fill-0, black)"/>
</svg>
