<svg preserveAspectRatio="none" width="100%" height="100%" overflow="visible" style="display: block;" viewBox="0 0 284.139 614.629" fill="none" xmlns="http://www.w3.org/2000/svg">
<path id="Mask" d="M43.2903 614.468C39.4386 614.292 36.7284 614.01 33.4766 613.446C22.8335 611.6 14.2783 606.649 8.63785 599.07C3.74427 592.494 1.38756 585.623 0.332528 574.856C0.0131716 571.597 0 561 0 307.318C0 56.3592 0.0161463 43.0091 0.323464 39.8721C1.54912 27.3611 4.87157 19.1578 11.4562 12.3851C14.9914 8.74882 18.9221 6.06643 23.5761 4.1142C28.1005 2.21635 32.6731 1.16315 39.3465 0.481795C43.1007 0.0984997 43.2658 0.0977437 138.584 0.0274122C234.895 -0.0436518 239.818 -0.0169495 245.893 0.609468C253.386 1.38214 259.279 3.11788 264.679 6.14305C270.056 9.15537 274.952 14.0544 278.134 19.6057C281.212 24.9772 282.961 31.2173 283.814 39.8721C284.123 43.0157 284.139 55.8348 284.139 307.318C284.139 560.546 284.125 571.603 283.808 574.856C282.76 585.603 280.396 592.492 275.501 599.07C272.598 602.971 268.94 606.176 264.631 608.594C258.14 612.237 251.445 613.9 240.94 614.478C237.173 614.685 47.829 614.676 43.2903 614.468ZM177.013 34.949C179.336 34.2591 181.124 33.2051 182.81 31.5321C184.607 29.7494 185.566 28.1906 186.256 25.9335C186.899 23.8312 186.899 20.6938 186.256 18.5915C185.566 16.3344 184.607 14.7756 182.81 12.9928C181.559 11.7509 180.91 11.2698 179.673 10.6647C176.487 9.10638 179.994 9.2387 141.886 9.2387H108.042L106.613 9.65295C100.666 11.3767 96.9447 16.2299 96.9447 22.2625C96.9447 28.9094 101.563 34.1924 108.233 35.1759C108.836 35.2648 124.248 35.3234 142.62 35.3065C173.973 35.2778 175.977 35.2569 177.013 34.949Z" fill="var(--fill-0, black)"/>
</svg>
