<svg preserveAspectRatio="none" width="100%" height="100%" overflow="visible" style="display: block;" viewBox="0 0 261.557 565.782" fill="none" xmlns="http://www.w3.org/2000/svg">
<g id="Group">
<path id="Vector" d="M39.85 565.635C36.3044 565.473 33.8095 565.213 30.8162 564.694C21.0189 562.995 13.1436 558.437 7.95141 551.46C3.44674 545.407 1.27732 539.082 0.306135 529.171C0.0121588 526.171 3.40002e-05 516.416 3.40002e-05 282.895C3.40002e-05 51.8803 0.0148971 39.5911 0.297791 36.7035C1.42604 25.1867 4.48444 17.6354 10.5457 11.4009C13.8 8.05362 17.4184 5.58441 21.7025 3.78732C25.8673 2.04031 30.0765 1.07081 36.2196 0.443601C39.6754 0.0907666 39.8273 0.0900707 127.57 0.0253286C216.227 -0.0400878 220.759 -0.0155076 226.351 0.561127C233.249 1.2724 238.673 2.87019 243.644 5.65494C248.594 8.42786 253.101 12.9376 256.03 18.0477C258.864 22.9922 260.474 28.7364 261.258 36.7035C261.543 39.5972 261.557 51.3976 261.557 282.895C261.557 515.998 261.545 526.176 261.253 529.171C260.288 539.063 258.112 545.405 253.606 551.46C250.934 555.051 247.566 558.001 243.6 560.228C237.625 563.581 231.462 565.112 221.792 565.644C218.324 565.834 44.0279 565.826 39.85 565.635ZM162.946 32.1716C165.084 31.5365 166.73 30.5663 168.282 29.0263C169.936 27.3852 170.819 25.9503 171.454 23.8726C172.045 21.9374 172.045 19.0493 171.454 17.1141C170.819 15.0363 169.936 13.6015 168.282 11.9604C167.13 10.8172 166.533 10.3742 165.394 9.81726C162.461 8.38277 165.689 8.50457 130.61 8.50457H99.456L98.1404 8.8859C92.6657 10.4727 89.2402 14.9401 89.2402 20.4933C89.2402 26.6119 93.4914 31.4751 99.6314 32.3804C100.187 32.4623 114.373 32.5163 131.285 32.5007C160.146 32.4742 161.992 32.4551 162.946 32.1716Z" fill="var(--fill-0, white)"/>
</g>
</svg>
