<svg preserveAspectRatio="none" width="100%" height="100%" overflow="visible" style="display: block;" viewBox="0 0 394.242 852.797" fill="none" xmlns="http://www.w3.org/2000/svg">
<g id="Group">
<path id="Vector" d="M60.0653 852.575C54.7211 852.33 50.9606 851.938 46.4488 851.156C31.6815 848.596 19.8112 841.725 11.985 831.209C5.19518 822.085 1.92524 812.552 0.461382 797.613C0.0182756 793.091 0 778.387 0 426.404C0 78.1985 0.022403 59.6752 0.448806 55.3226C2.1494 37.9636 6.7593 26.5815 15.8954 17.1844C20.8005 12.1391 26.2544 8.41724 32.7119 5.70852C38.9895 3.07526 45.3339 1.61395 54.5933 0.668564C59.8022 0.136741 60.0313 0.135692 192.285 0.0381073C325.917 -0.060494 332.747 -0.0234446 341.176 0.84571C351.573 1.9178 359.749 4.32613 367.242 8.52355C374.702 12.7032 381.496 19.5006 385.911 27.203C390.182 34.6559 392.609 43.314 393.791 55.3226C394.221 59.6843 394.242 77.4709 394.242 426.404C394.242 777.758 394.224 793.099 393.783 797.613C392.329 812.524 389.05 822.082 382.257 831.209C378.229 836.622 373.154 841.069 367.175 844.425C358.169 849.479 348.879 851.786 334.304 852.588C329.077 852.876 66.3627 852.863 60.0653 852.575ZM245.606 48.4919C248.829 47.5345 251.31 46.0721 253.649 43.7509C256.142 41.2773 257.473 39.1145 258.43 35.9828C259.322 33.0659 259.322 28.7127 258.43 25.7958C257.473 22.664 256.142 20.5012 253.649 18.0276C251.912 16.3045 251.013 15.6369 249.297 14.7974C244.876 12.6352 249.741 12.8188 196.867 12.8188H149.909L147.926 13.3935C139.674 15.7853 134.511 22.519 134.511 30.8893C134.511 40.1118 140.918 47.442 150.173 48.8066C151.011 48.93 172.393 49.0113 197.885 48.9879C241.387 48.948 244.168 48.9191 245.606 48.4919Z" fill="var(--fill-0, white)"/>
</g>
</svg>
