<svg preserveAspectRatio="none" width="100%" height="100%" overflow="visible" style="display: block;" viewBox="0 0 393.799 851.837" fill="none" xmlns="http://www.w3.org/2000/svg">
<g id="Group">
<path id="Vector" d="M59.9977 851.615C54.6595 851.37 50.9033 850.979 46.3966 850.198C31.6459 847.64 19.7889 840.777 11.9715 830.273C5.18935 821.16 1.9231 811.637 0.460888 796.715C0.0182801 792.198 2.51532e-05 777.511 2.51532e-05 425.924C2.51532e-05 78.1104 0.0224029 59.608 0.448325 55.2603C2.147 37.9208 6.75171 26.5516 15.8775 17.165C20.7771 12.1254 26.2249 8.40775 32.6751 5.70208C38.9456 3.07178 45.2829 1.61211 54.5318 0.667795C59.7348 0.136571 59.9637 0.135524 192.069 0.0380484C325.55 -0.0604418 332.373 -0.0234342 340.792 0.844742C351.177 1.91562 359.344 4.32124 366.828 8.51394C374.28 12.6888 381.066 19.4786 385.476 27.1724C389.743 34.6168 392.167 43.2652 393.348 55.2603C393.777 59.6171 393.799 77.3836 393.799 425.924C393.799 776.882 393.78 792.206 393.34 796.715C391.887 811.609 388.611 821.157 381.827 830.273C377.804 835.68 372.734 840.122 366.762 843.474C357.766 848.523 348.487 850.827 333.928 851.628C328.707 851.915 66.288 851.902 59.9977 851.615ZM245.33 48.4372C248.549 47.481 251.027 46.0202 253.363 43.7016C255.854 41.2308 257.183 39.0705 258.139 35.9422C259.03 33.0286 259.03 28.6803 258.139 25.7667C257.183 22.6385 255.854 20.4781 253.363 18.0073C251.629 16.2861 250.73 15.6192 249.016 14.7807C244.601 12.6209 249.46 12.8043 196.645 12.8043H149.74L147.759 13.3784C139.517 15.7675 134.359 22.4937 134.359 30.8545C134.359 40.0666 140.76 47.3886 150.004 48.7516C150.84 48.8749 172.199 48.9561 197.662 48.9327C241.115 48.8928 243.893 48.864 245.33 48.4372Z" fill="var(--fill-0, white)"/>
</g>
</svg>
