<svg preserveAspectRatio="none" width="100%" height="100%" overflow="visible" style="display: block;" viewBox="0 0 261.263 565.145" fill="none" xmlns="http://www.w3.org/2000/svg">
<g id="Group">
<path id="Vector" d="M39.8051 564.998C36.2635 564.836 33.7714 564.576 30.7815 564.058C20.9952 562.361 13.1288 557.808 7.94242 550.839C3.44282 544.793 1.27585 538.475 0.305756 528.575C0.0121111 525.578 0 515.834 0 282.576C0 51.8218 0.0148464 39.5465 0.297422 36.6621C1.4244 25.1583 4.47936 17.6155 10.5338 11.388C13.7844 8.04449 17.3987 5.57805 21.678 3.78299C25.8382 2.03794 30.0426 1.06953 36.1787 0.443033C39.6306 0.090596 39.7825 0.0899009 127.427 0.0252317C215.984 -0.040111 220.51 -0.0155585 226.096 0.560427C232.986 1.27089 238.404 2.86689 243.369 5.6485C248.314 8.4183 252.816 12.923 255.741 18.0273C258.572 22.9663 260.18 28.704 260.964 36.6621C261.249 39.5525 261.263 51.3396 261.263 282.576C261.263 515.417 261.25 525.584 260.959 528.575C259.995 538.456 257.822 544.791 253.32 550.839C250.651 554.426 247.287 557.373 243.325 559.597C237.357 562.946 231.201 564.475 221.542 565.007C218.078 565.197 43.9783 565.189 39.8051 564.998ZM162.762 32.1353C164.898 31.5009 166.542 30.5318 168.092 28.9935C169.744 27.3543 170.626 25.921 171.261 23.8456C171.851 21.9126 171.851 19.0278 171.261 17.0947C170.626 15.0193 169.744 13.5861 168.092 11.9468C166.941 10.8049 166.345 10.3625 165.208 9.80614C162.279 8.37326 165.502 8.49492 130.463 8.49492H99.344L98.0298 8.87582C92.5613 10.4608 89.1397 14.9232 89.1397 20.4702C89.1397 26.5819 93.3861 31.4396 99.5192 32.3439C100.074 32.4257 114.244 32.4796 131.137 32.4641C159.966 32.4376 161.809 32.4184 162.762 32.1353Z" fill="var(--fill-0, white)"/>
</g>
</svg>
